<svg width="278" height="237" viewBox="0 0 278 237" fill="none" xmlns="http://www.w3.org/2000/svg">
<path fill-rule="evenodd" clip-rule="evenodd" d="M144.232 0.0428449C121.142 -0.975263 102.77 16.39 82.1012 26.7029C56.2361 39.6087 21.9994 42.5462 8.22739 67.9042C-5.93689 93.9844 -0.0646057 127.775 12.6455 154.589C24.5594 179.724 49.1214 196.121 74.4809 207.679C96.263 217.606 120.6 210.684 144.232 214.56C174.823 219.576 204.599 246.242 232.917 233.661C261.185 221.104 275.132 185.968 277.79 155.228C280.22 127.131 261.02 102.981 246.303 78.8969C234.877 60.1988 219.854 45.4222 202.494 32.0114C184.532 18.1347 166.934 1.04383 144.232 0.0428449Z" fill="#2DAAF0" fill-opacity="0.6"/>
</svg>
