<svg width="325" height="276" viewBox="0 0 325 276" fill="none" xmlns="http://www.w3.org/2000/svg">
<path fill-rule="evenodd" clip-rule="evenodd" d="M168.617 0.0498953C141.623 -1.13575 120.145 19.0871 95.9816 31.097C65.7436 46.1265 25.7187 49.5475 9.61835 79.0783C-6.94061 109.45 -0.075531 148.801 14.7835 180.028C28.7115 209.299 57.4261 228.394 87.073 241.854C112.538 253.415 140.989 245.353 168.617 249.867C204.38 255.709 239.189 286.762 272.296 272.112C305.342 257.488 321.647 216.57 324.755 180.772C327.596 148.051 305.15 119.927 287.944 91.8799C274.586 70.105 257.023 52.8968 236.729 37.2791C215.73 21.1189 195.156 1.2156 168.617 0.0498953Z" fill="#81CCF6"/>
</svg>
